<svg width="19" height="19" viewBox="0 0 19 19" fill="none" xmlns="http://www.w3.org/2000/svg">
<path d="M13.0513 7.4L16.9612 4.66303C17.1309 4.54426 17.3647 4.58553 17.4835 4.7552C17.5276 4.81823 17.5513 4.89331 17.5513 4.97025V14.0298C17.5513 14.2368 17.3833 14.4048 17.1763 14.4048C17.0993 14.4048 17.0242 14.3811 16.9612 14.337L13.0513 11.6V14.75C13.0513 15.1642 12.7155 15.5 12.3013 15.5H1.80127C1.38706 15.5 1.05127 15.1642 1.05127 14.75V4.25C1.05127 3.83579 1.38706 3.5 1.80127 3.5H12.3013C12.7155 3.5 13.0513 3.83579 13.0513 4.25V7.4ZM13.0513 9.76902L16.0513 11.869V7.13098L13.0513 9.23098V9.76902ZM2.55127 5V14H11.5513V5H2.55127ZM4.05127 6.5H5.55127V8H4.05127V6.5Z" fill="black"/>
</svg>
