<svg width="25" height="25" viewBox="0 0 25 25" fill="none" xmlns="http://www.w3.org/2000/svg">
<g clip-path="url(#clip0_1_291)">
<path d="M20.5317 17.6897H22.5317V19.6897H2.53174V17.6897H4.53174L4.53174 10.6897C4.53174 8.56797 5.37459 6.53313 6.87488 5.03284C8.37517 3.53255 10.41 2.6897 12.5317 2.6897C14.6535 2.6897 16.6883 3.53255 18.1886 5.03284C19.6889 6.53313 20.5317 8.56797 20.5317 10.6897V17.6897ZM18.5317 17.6897V10.6897C18.5317 9.0984 17.8996 7.57228 16.7744 6.44706C15.6492 5.32184 14.123 4.6897 12.5317 4.6897C10.9404 4.6897 9.41431 5.32184 8.28909 6.44706C7.16388 7.57228 6.53174 9.0984 6.53174 10.6897L6.53174 17.6897H18.5317ZM9.53173 21.6897H15.5317V23.6897H9.53173V21.6897Z" fill="black"/>
</g>
<defs>
<clipPath id="clip0_1_291">
<rect width="24" height="24" fill="white" transform="translate(0.531738 0.689697)"/>
</clipPath>
</defs>
</svg>
