<svg width="24" height="25" viewBox="0 0 24 25" fill="none" xmlns="http://www.w3.org/2000/svg">
<path d="M17 10.075L22.2133 6.42571C22.4395 6.26735 22.7513 6.32237 22.9096 6.5486C22.9684 6.63264 23 6.73274 23 6.83533V18.9147C23 19.1908 22.7761 19.4147 22.5 19.4147C22.3974 19.4147 22.2973 19.3831 22.2133 19.3243L17 15.675V19.875C17 20.4273 16.5523 20.875 16 20.875H2C1.44772 20.875 1 20.4273 1 19.875V5.875C1 5.32272 1.44772 4.875 2 4.875H16C16.5523 4.875 17 5.32272 17 5.875V10.075ZM17 13.2337L21 16.0337V9.71631L17 12.5163V13.2337ZM3 6.875V18.875H15V6.875H3ZM5 8.875H7V10.875H5V8.875Z" fill="black"/>
</svg>
