<svg width="25" height="25" viewBox="0 0 25 25" fill="none" xmlns="http://www.w3.org/2000/svg">
<path d="M12.457 2.375C17.9798 2.375 22.457 6.85215 22.457 12.375C22.457 17.8978 17.9798 22.375 12.457 22.375C6.93418 22.375 2.45703 17.8978 2.45703 12.375C2.45703 6.85215 6.93418 2.375 12.457 2.375ZM12.6167 16.375C10.5813 16.375 8.74885 17.2437 7.46979 18.6306C8.83742 19.7224 10.571 20.375 12.457 20.375C14.4265 20.375 16.2297 19.6633 17.6236 18.4831C16.3526 17.1824 14.5789 16.375 12.6167 16.375ZM12.457 4.375C8.03875 4.375 4.45703 7.95672 4.45703 12.375C4.45703 14.1856 5.05853 15.8557 6.0726 17.1964C7.71342 15.4591 10.0385 14.375 12.6167 14.375C15.1011 14.375 17.3503 15.3816 18.9788 17.0092C19.9096 15.7017 20.457 14.1023 20.457 12.375C20.457 7.95672 16.8753 4.375 12.457 4.375ZM12.457 5.375C14.6661 5.375 16.457 7.16586 16.457 9.375C16.457 11.5841 14.6661 13.375 12.457 13.375C10.2479 13.375 8.45703 11.5841 8.45703 9.375C8.45703 7.16586 10.2479 5.375 12.457 5.375ZM12.457 7.375C11.3524 7.375 10.457 8.27043 10.457 9.375C10.457 10.4796 11.3524 11.375 12.457 11.375C13.5616 11.375 14.457 10.4796 14.457 9.375C14.457 8.27043 13.5616 7.375 12.457 7.375Z" fill="white"/>
</svg>
