<svg width="25" height="24" viewBox="0 0 25 24" fill="none" xmlns="http://www.w3.org/2000/svg">
<g clip-path="url(#clip0_1_288)">
<path d="M20.5317 17.0017H22.5317V19.0017H2.53174V17.0017H4.53174L4.53174 10.0017C4.53174 7.87998 5.37459 5.84515 6.87488 4.34485C8.37517 2.84456 10.41 2.00171 12.5317 2.00171C14.6535 2.00171 16.6883 2.84456 18.1886 4.34485C19.6889 5.84515 20.5317 7.87998 20.5317 10.0017V17.0017ZM18.5317 17.0017V10.0017C18.5317 8.41041 17.8996 6.88429 16.7744 5.75907C15.6492 4.63385 14.123 4.00171 12.5317 4.00171C10.9404 4.00171 9.41431 4.63385 8.28909 5.75907C7.16388 6.88429 6.53174 8.41041 6.53174 10.0017L6.53174 17.0017H18.5317ZM9.53173 21.0017H15.5317V23.0017H9.53173V21.0017Z" fill="black"/>
</g>
<defs>
<clipPath id="clip0_1_288">
<rect width="24" height="24" fill="white" transform="translate(0.531738 0.00170898)"/>
</clipPath>
</defs>
</svg>
