<svg width="18" height="19" viewBox="0 0 18 19" fill="none" xmlns="http://www.w3.org/2000/svg">
<path d="M7.02417 8.51158C7.7265 9.7466 8.7534 10.7735 9.98842 11.4758L10.6518 10.5471C10.8724 10.2384 11.2887 10.143 11.6217 10.3249C12.6768 10.9012 13.8428 11.2515 15.0592 11.3478C15.4492 11.3787 15.75 11.7042 15.75 12.0954V15.4426C15.75 15.8271 15.4591 16.1493 15.0766 16.1886C14.6792 16.2295 14.2783 16.25 13.875 16.25C7.45469 16.25 2.25 11.0453 2.25 4.625C2.25 4.2217 2.27057 3.82078 2.31142 3.42332C2.35073 3.04081 2.67296 2.75 3.05749 2.75H6.40456C6.79583 2.75 7.12135 3.05078 7.15222 3.44082C7.2485 4.65716 7.59877 5.82323 8.17515 6.87833C8.35703 7.2113 8.26162 7.62766 7.95292 7.84818L7.02417 8.51158ZM5.13319 8.0189L6.55815 7.00107C6.1541 6.12885 5.87721 5.20387 5.73545 4.25H3.7568C3.75227 4.37474 3.75 4.49975 3.75 4.625C3.75 10.2169 8.28315 14.75 13.875 14.75C14.0002 14.75 14.1253 14.7478 14.25 14.7432V12.7645C13.2962 12.6228 12.3712 12.3459 11.4989 11.9419L10.4811 13.3668C10.0694 13.2069 9.6717 13.0186 9.29055 12.8046L9.24697 12.7797C7.77728 11.944 6.55601 10.7227 5.72025 9.25303L5.69545 9.20945C5.48137 8.8283 5.29316 8.43065 5.13319 8.0189Z" fill="black"/>
</svg>
