<svg width="22" height="21" viewBox="0 0 22 21" fill="none" xmlns="http://www.w3.org/2000/svg">
<path d="M11.4035 2.82353C10.0227 2.82353 8.90344 3.94282 8.90344 5.32353V8.65686C8.90344 10.0376 10.0227 11.1569 11.4035 11.1569C12.7841 11.1569 13.9035 10.0376 13.9035 8.65686V5.32353C13.9035 3.94282 12.7841 2.82353 11.4035 2.82353ZM11.4035 1.15686C13.7046 1.15686 15.5701 3.02234 15.5701 5.32353V8.65686C15.5701 10.958 13.7046 12.8235 11.4035 12.8235C9.10225 12.8235 7.23678 10.958 7.23678 8.65686V5.32353C7.23678 3.02234 9.10225 1.15686 11.4035 1.15686ZM3.94922 9.49019H5.62919C6.03354 12.3171 8.46472 14.4902 11.4035 14.4902C14.3421 14.4902 16.7733 12.3171 17.1777 9.49019H18.8576C18.4734 12.9665 15.7131 15.7268 12.2368 16.1111V19.4902H10.5701V16.1111C7.09376 15.7268 4.33351 12.9665 3.94922 9.49019Z" fill="#858585"/>
</svg>
