<svg width="33" height="33" viewBox="0 0 33 33" fill="none" xmlns="http://www.w3.org/2000/svg">
<g clip-path="url(#clip0_1_633)">
<path d="M23.5145 20.6222H25.8003V22.9079H2.94312V20.6222H5.22883L5.22883 12.6222C5.22883 10.1974 6.19209 7.87187 7.90671 6.15725C9.62133 4.44263 11.9468 3.47937 14.3717 3.47937C16.7965 3.47937 19.122 4.44263 20.8367 6.15725C22.5513 7.87187 23.5145 10.1974 23.5145 12.6222V20.6222ZM21.2288 20.6222V12.6222C21.2288 10.8036 20.5064 9.05946 19.2204 7.7735C17.9345 6.48753 16.1903 5.76508 14.3717 5.76508C12.5531 5.76508 10.8089 6.48753 9.52295 7.7735C8.23699 9.05946 7.51454 10.8036 7.51454 12.6222V20.6222H21.2288ZM10.9431 25.1937H17.8003V27.4794H10.9431L10.9431 25.1937Z" fill="black"/>
<circle cx="20.1097" cy="4.97937" r="4.5" fill="#F30000"/>
</g>
<defs>
<clipPath id="clip0_1_633">
<rect width="32" height="32" fill="white" transform="translate(0.276489 0.812744)"/>
</clipPath>
</defs>
</svg>
