<svg width="25" height="25" viewBox="0 0 25 25" fill="none" xmlns="http://www.w3.org/2000/svg">
<path d="M12.1812 22.375C6.6583 22.375 2.18115 17.8978 2.18115 12.375C2.18115 6.85215 6.6583 2.375 12.1812 2.375C17.704 2.375 22.1812 6.85215 22.1812 12.375C22.1812 17.8978 17.704 22.375 12.1812 22.375ZM12.1812 20.375C16.5995 20.375 20.1812 16.7933 20.1812 12.375C20.1812 7.95672 16.5995 4.375 12.1812 4.375C7.76287 4.375 4.18115 7.95672 4.18115 12.375C4.18115 16.7933 7.76287 20.375 12.1812 20.375ZM13.1812 12.375H17.1812V14.375H11.1812V7.375H13.1812V12.375Z" fill="black"/>
</svg>
