<svg width="19" height="18" viewBox="0 0 19 18" fill="none" xmlns="http://www.w3.org/2000/svg">
<path d="M14.196 12.4626L17.408 15.6746L16.3474 16.7353L13.1353 13.5232C11.9804 14.4472 10.5157 15 8.92273 15C5.19673 15 2.17273 11.976 2.17273 8.25C2.17273 4.524 5.19673 1.5 8.92273 1.5C12.6487 1.5 15.6727 4.524 15.6727 8.25C15.6727 9.843 15.12 11.3077 14.196 12.4626ZM12.6913 11.9061C13.6084 10.9609 14.1727 9.6717 14.1727 8.25C14.1727 5.34937 11.8234 3 8.92273 3C6.0221 3 3.67273 5.34937 3.67273 8.25C3.67273 11.1506 6.0221 13.5 8.92273 13.5C10.3444 13.5 11.6337 12.9356 12.5788 12.0185L12.6913 11.9061Z" fill="#858585"/>
</svg>
