<svg width="25" height="25" viewBox="0 0 25 25" fill="none" xmlns="http://www.w3.org/2000/svg">
<g clip-path="url(#clip0_1_294)">
<path d="M20.5317 17.3777H22.5317V19.3777H2.53174V17.3777H4.53174L4.53174 10.3777C4.53174 8.25595 5.37459 6.22112 6.87488 4.72083C8.37517 3.22054 10.41 2.37769 12.5317 2.37769C14.6535 2.37769 16.6883 3.22054 18.1886 4.72083C19.6889 6.22112 20.5317 8.25595 20.5317 10.3777V17.3777ZM18.5317 17.3777V10.3777C18.5317 8.78639 17.8996 7.26026 16.7744 6.13505C15.6492 5.00983 14.123 4.37769 12.5317 4.37769C10.9404 4.37769 9.41431 5.00983 8.28909 6.13505C7.16388 7.26026 6.53174 8.78639 6.53174 10.3777L6.53174 17.3777H18.5317ZM9.53173 21.3777H15.5317V23.3777H9.53173V21.3777Z" fill="black"/>
</g>
<defs>
<clipPath id="clip0_1_294">
<rect width="24" height="24" fill="white" transform="translate(0.531738 0.377686)"/>
</clipPath>
</defs>
</svg>
