<svg width="21" height="21" viewBox="0 0 21 21" fill="none" xmlns="http://www.w3.org/2000/svg">
<path d="M10.95 4.7601C12.9075 3.003 15.9325 3.06133 17.818 4.9508C19.7036 6.84026 19.7683 9.8505 18.0147 11.8138L10.9491 18.8905L3.88366 11.8138C2.13005 9.8505 2.1956 6.8355 4.08031 4.9508C5.96715 3.06395 8.98684 3.00039 10.95 4.7601ZM16.6383 6.12808C15.3891 4.87628 13.3722 4.8255 12.0633 6.00039L10.9508 6.99903L9.83759 6.00117C8.52499 4.82464 6.51173 4.8764 5.25882 6.1293C4.01737 7.37075 3.95504 9.35908 5.09912 10.6723L10.9491 16.5316L16.7993 10.6723C17.9438 9.35858 17.8817 7.37404 16.6383 6.12808Z" fill="#0B8FAC"/>
</svg>
