<svg width="25" height="25" viewBox="0 0 25 25" fill="none" xmlns="http://www.w3.org/2000/svg">
<g clip-path="url(#clip0_1_285)">
<path d="M20.5317 17.3137H22.5317V19.3137H2.53174V17.3137H4.53174L4.53174 10.3137C4.53174 8.19199 5.37459 6.15716 6.87488 4.65687C8.37517 3.15658 10.41 2.31372 12.5317 2.31372C14.6535 2.31372 16.6883 3.15658 18.1886 4.65687C19.6889 6.15716 20.5317 8.19199 20.5317 10.3137V17.3137ZM18.5317 17.3137V10.3137C18.5317 8.72242 17.8996 7.1963 16.7744 6.07108C15.6492 4.94586 14.123 4.31372 12.5317 4.31372C10.9404 4.31372 9.41431 4.94586 8.28909 6.07108C7.16388 7.1963 6.53174 8.72242 6.53174 10.3137L6.53174 17.3137H18.5317ZM9.53173 21.3137H15.5317V23.3137H9.53173V21.3137Z" fill="black"/>
</g>
<defs>
<clipPath id="clip0_1_285">
<rect width="24" height="24" fill="white" transform="translate(0.531738 0.313721)"/>
</clipPath>
</defs>
</svg>
