<svg width="25" height="25" viewBox="0 0 25 25" fill="none" xmlns="http://www.w3.org/2000/svg">
<path d="M12.6023 3.875C10.9454 3.875 9.6023 5.21815 9.6023 6.875V10.875C9.6023 12.5319 10.9454 13.875 12.6023 13.875C14.2591 13.875 15.6023 12.5319 15.6023 10.875V6.875C15.6023 5.21815 14.2591 3.875 12.6023 3.875ZM12.6023 1.875C15.3637 1.875 17.6023 4.11358 17.6023 6.875V10.875C17.6023 13.6364 15.3637 15.875 12.6023 15.875C9.84087 15.875 7.6023 13.6364 7.6023 10.875V6.875C7.6023 4.11358 9.84087 1.875 12.6023 1.875ZM3.65723 11.875H5.67319C6.15842 15.2673 9.07583 17.875 12.6023 17.875C16.1287 17.875 19.0461 15.2673 19.5314 11.875H21.5473C21.0862 16.0466 17.7739 19.3589 13.6023 19.8201V23.875H11.6023V19.8201C7.43068 19.3589 4.11838 16.0466 3.65723 11.875Z" fill="white"/>
</svg>
