<svg width="25" height="25" viewBox="0 0 25 25" fill="none" xmlns="http://www.w3.org/2000/svg">
<path d="M12.4573 2.875C17.9801 2.875 22.4573 7.35215 22.4573 12.875C22.4573 18.3978 17.9801 22.875 12.4573 22.875C6.93443 22.875 2.45728 18.3978 2.45728 12.875C2.45728 7.35215 6.93443 2.875 12.4573 2.875ZM12.617 16.875C10.5816 16.875 8.7491 17.7437 7.47004 19.1306C8.83767 20.2224 10.5713 20.875 12.4573 20.875C14.4268 20.875 16.23 20.1633 17.6239 18.9831C16.3529 17.6824 14.5792 16.875 12.617 16.875ZM12.4573 4.875C8.039 4.875 4.45728 8.45672 4.45728 12.875C4.45728 14.6856 5.05878 16.3557 6.07285 17.6964C7.71367 15.9591 10.0387 14.875 12.617 14.875C15.1014 14.875 17.3506 15.8816 18.9791 17.5092C19.9099 16.2017 20.4573 14.6023 20.4573 12.875C20.4573 8.45672 16.8756 4.875 12.4573 4.875ZM12.4573 5.875C14.6664 5.875 16.4573 7.66586 16.4573 9.875C16.4573 12.0841 14.6664 13.875 12.4573 13.875C10.2481 13.875 8.45728 12.0841 8.45728 9.875C8.45728 7.66586 10.2481 5.875 12.4573 5.875ZM12.4573 7.875C11.3527 7.875 10.4573 8.77043 10.4573 9.875C10.4573 10.9796 11.3527 11.875 12.4573 11.875C13.5619 11.875 14.4573 10.9796 14.4573 9.875C14.4573 8.77043 13.5619 7.875 12.4573 7.875Z" fill="black"/>
</svg>
