<svg width="24" height="25" viewBox="0 0 24 25" fill="none" xmlns="http://www.w3.org/2000/svg">
<path d="M11.9998 3.875C10.3429 3.875 8.99976 5.21815 8.99976 6.875V10.875C8.99976 12.5319 10.3429 13.875 11.9998 13.875C13.6566 13.875 14.9998 12.5319 14.9998 10.875V6.875C14.9998 5.21815 13.6566 3.875 11.9998 3.875ZM11.9998 1.875C14.7612 1.875 16.9998 4.11358 16.9998 6.875V10.875C16.9998 13.6364 14.7612 15.875 11.9998 15.875C9.23833 15.875 6.99976 13.6364 6.99976 10.875V6.875C6.99976 4.11358 9.23833 1.875 11.9998 1.875ZM3.05469 11.875H5.07065C5.55588 15.2673 8.47329 17.875 11.9998 17.875C15.5262 17.875 18.4436 15.2673 18.9289 11.875H20.9448C20.4837 16.0466 17.1714 19.3589 12.9998 19.8201V23.875H10.9998V19.8201C6.82814 19.3589 3.51584 16.0466 3.05469 11.875Z" fill="black"/>
</svg>
