<svg width="25" height="25" viewBox="0 0 25 25" fill="none" xmlns="http://www.w3.org/2000/svg">
<path d="M10.6478 5.5L8.64777 7.5H4.81934V19.5H20.8193V7.5H16.9909L14.9909 5.5H10.6478ZM9.81934 3.5H15.8193L17.8193 5.5H21.8193C22.3716 5.5 22.8193 5.94772 22.8193 6.5V20.5C22.8193 21.0523 22.3716 21.5 21.8193 21.5H3.81934C3.26706 21.5 2.81934 21.0523 2.81934 20.5V6.5C2.81934 5.94772 3.26706 5.5 3.81934 5.5H7.81934L9.81934 3.5ZM12.8193 18.5C9.78177 18.5 7.31934 16.0376 7.31934 13C7.31934 9.96243 9.78177 7.5 12.8193 7.5C15.8569 7.5 18.3193 9.96243 18.3193 13C18.3193 16.0376 15.8569 18.5 12.8193 18.5ZM12.8193 16.5C14.7523 16.5 16.3193 14.933 16.3193 13C16.3193 11.067 14.7523 9.5 12.8193 9.5C10.8863 9.5 9.31934 11.067 9.31934 13C9.31934 14.933 10.8863 16.5 12.8193 16.5Z" fill="#858585"/>
</svg>
