<svg width="24" height="25" viewBox="0 0 24 25" fill="none" xmlns="http://www.w3.org/2000/svg">
<path d="M9.36556 11.5571C10.302 13.2038 11.6712 14.573 13.3179 15.5094L14.2024 14.2711C14.4965 13.8595 15.0516 13.7323 15.4956 13.9748C16.9024 14.7433 18.4571 15.2103 20.0789 15.3387C20.599 15.3799 21 15.8139 21 16.3356V20.7984C21 21.3111 20.6122 21.7407 20.1022 21.7931C19.5723 21.8476 19.0377 21.875 18.5 21.875C9.93959 21.875 3 14.9354 3 6.375C3 5.83727 3.02742 5.30271 3.08189 4.77276C3.1343 4.26275 3.56394 3.875 4.07665 3.875H8.53942C9.0611 3.875 9.49513 4.27604 9.5363 4.79609C9.66467 6.41788 10.1317 7.97264 10.9002 9.37944C11.1427 9.8234 11.0155 10.3785 10.6039 10.6726L9.36556 11.5571ZM6.84425 10.9002L8.7442 9.54309C8.20547 8.38014 7.83628 7.14683 7.64727 5.875H5.00907C5.00303 6.04132 5 6.208 5 6.375C5 13.8308 11.0442 19.875 18.5 19.875C18.667 19.875 18.8337 19.872 19 19.8659V17.2277C17.7282 17.0387 16.4949 16.6695 15.3319 16.1308L13.9748 18.0308C13.4258 17.8175 12.8956 17.5665 12.3874 17.2811L12.3293 17.248C10.3697 16.1337 8.74134 14.5053 7.627 12.5457L7.59394 12.4876C7.30849 11.9794 7.05754 11.4492 6.84425 10.9002Z" fill="white"/>
</svg>
