<svg width="25" height="25" viewBox="0 0 25 25" fill="none" xmlns="http://www.w3.org/2000/svg">
<g clip-path="url(#clip0_1_282)">
<path d="M20.5317 17.6257H22.5317V19.6257H2.53174V17.6257H4.53174L4.53174 10.6257C4.53174 8.504 5.37459 6.46917 6.87488 4.96888C8.37517 3.46859 10.41 2.62573 12.5317 2.62573C14.6535 2.62573 16.6883 3.46859 18.1886 4.96888C19.6889 6.46917 20.5317 8.504 20.5317 10.6257V17.6257ZM18.5317 17.6257V10.6257C18.5317 9.03443 17.8996 7.50831 16.7744 6.38309C15.6492 5.25787 14.123 4.62573 12.5317 4.62573C10.9404 4.62573 9.41431 5.25787 8.28909 6.38309C7.16388 7.50831 6.53174 9.03443 6.53174 10.6257L6.53174 17.6257H18.5317ZM9.53173 21.6257H15.5317V23.6257H9.53173V21.6257Z" fill="black"/>
</g>
<defs>
<clipPath id="clip0_1_282">
<rect width="24" height="24" fill="white" transform="translate(0.531738 0.625732)"/>
</clipPath>
</defs>
</svg>
