<svg width="25" height="25" viewBox="0 0 25 25" fill="none" xmlns="http://www.w3.org/2000/svg">
<g clip-path="url(#clip0_1_279)">
<path d="M20.5317 17.9377H22.5317V19.9377H2.53174V17.9377H4.53174L4.53174 10.9377C4.53174 8.81601 5.37459 6.78118 6.87488 5.28089C8.37517 3.7806 10.41 2.93774 12.5317 2.93774C14.6535 2.93774 16.6883 3.7806 18.1886 5.28089C19.6889 6.78118 20.5317 8.81601 20.5317 10.9377V17.9377ZM18.5317 17.9377V10.9377C18.5317 9.34645 17.8996 7.82032 16.7744 6.6951C15.6492 5.56989 14.123 4.93774 12.5317 4.93774C10.9404 4.93774 9.41431 5.56989 8.28909 6.6951C7.16388 7.82032 6.53174 9.34645 6.53174 10.9377L6.53174 17.9377H18.5317ZM9.53173 21.9377H15.5317V23.9377H9.53173V21.9377Z" fill="black"/>
</g>
<defs>
<clipPath id="clip0_1_279">
<rect width="24" height="24" fill="white" transform="translate(0.531738 0.937744)"/>
</clipPath>
</defs>
</svg>
