<svg width="46" height="46" viewBox="0 0 46 46" fill="none" xmlns="http://www.w3.org/2000/svg">
<circle opacity="0.55" cx="22.5571" cy="22.9996" r="22.5" fill="#D2EBE7"/>
<path d="M23 33C17.4771 33 13 28.5228 13 23C13 17.4771 17.4771 13 23 13C28.5228 13 33 17.4771 33 23C33 28.5228 28.5228 33 23 33ZM23 31C27.4183 31 31 27.4183 31 23C31 18.5817 27.4183 15 23 15C18.5817 15 15 18.5817 15 23C15 27.4183 18.5817 31 23 31ZM22 26H24V28H22V26ZM24 24.3551V25H22V23.5C22 22.9477 22.4477 22.5 23 22.5C23.8284 22.5 24.5 21.8284 24.5 21C24.5 20.1716 23.8284 19.5 23 19.5C22.2723 19.5 21.6656 20.0182 21.5288 20.7058L19.5673 20.3135C19.8864 18.7092 21.302 17.5 23 17.5C24.933 17.5 26.5 19.067 26.5 21C26.5 22.5855 25.4457 23.9248 24 24.3551Z" fill="#0B8FAC"/>
</svg>
