<svg width="31" height="31" viewBox="0 0 31 31" fill="none" xmlns="http://www.w3.org/2000/svg">
<path d="M14 8.75H17C20.3137 8.75 23 11.4363 23 14.75C23 18.0637 20.3137 20.75 17 20.75V23.375C13.25 21.875 8 19.625 8 14.75C8 11.4363 10.6863 8.75 14 8.75ZM15.5 19.25H17C19.4853 19.25 21.5 17.2353 21.5 14.75C21.5 12.2647 19.4853 10.25 17 10.25H14C11.5147 10.25 9.5 12.2647 9.5 14.75C9.5 17.4575 11.3466 19.2242 15.5 21.1098V19.25Z" fill="black"/>
<circle cx="15.5" cy="15.5" r="15" fill="#7BC1B7" fill-opacity="0.3"/>
</svg>
