<svg width="46" height="46" viewBox="0 0 46 46" fill="none" xmlns="http://www.w3.org/2000/svg">
<circle opacity="0.55" cx="22.5571" cy="23" r="22.5" fill="#D2EBE7"/>
<path d="M23 13C28.5228 13 33 17.4771 33 23C33 28.5228 28.5228 33 23 33C17.4771 33 13 28.5228 13 23C13 17.4771 17.4771 13 23 13ZM23.1597 27C21.1243 27 19.2918 27.8687 18.0128 29.2556C19.3804 30.3474 21.114 31 23 31C24.9695 31 26.7727 30.2883 28.1666 29.1081C26.8956 27.8074 25.1219 27 23.1597 27ZM23 15C18.5817 15 15 18.5817 15 23C15 24.8106 15.6015 26.4807 16.6156 27.8214C18.2564 26.0841 20.5814 25 23.1597 25C25.6441 25 27.8933 26.0066 29.5218 27.6342C30.4526 26.3267 31 24.7273 31 23C31 18.5817 27.4183 15 23 15ZM23 16C25.2091 16 27 17.7909 27 20C27 22.2091 25.2091 24 23 24C20.7909 24 19 22.2091 19 20C19 17.7909 20.7909 16 23 16ZM23 18C21.8954 18 21 18.8954 21 20C21 21.1046 21.8954 22 23 22C24.1046 22 25 21.1046 25 20C25 18.8954 24.1046 18 23 18Z" fill="#0B8FAC"/>
</svg>
