<svg width="31" height="31" viewBox="0 0 31 31" fill="none" xmlns="http://www.w3.org/2000/svg">
<circle cx="15.5" cy="15.5" r="15" fill="#7BC1B7" fill-opacity="0.3"/>
<path d="M19.25 13.4L23.16 10.663C23.3296 10.5443 23.5635 10.5855 23.6822 10.7552C23.7263 10.8182 23.75 10.8933 23.75 10.9702V20.0298C23.75 20.2368 23.5821 20.4048 23.375 20.4048C23.298 20.4048 23.223 20.3811 23.16 20.337L19.25 17.6V20.75C19.25 21.1642 18.9142 21.5 18.5 21.5H8C7.58579 21.5 7.25 21.1642 7.25 20.75V10.25C7.25 9.83579 7.58579 9.5 8 9.5H18.5C18.9142 9.5 19.25 9.83579 19.25 10.25V13.4ZM19.25 15.769L22.25 17.869V13.131L19.25 15.231V15.769ZM8.75 11V20H17.75V11H8.75ZM10.25 12.5H11.75V14H10.25V12.5Z" fill="black"/>
</svg>
