<svg width="46" height="46" viewBox="0 0 46 46" fill="none" xmlns="http://www.w3.org/2000/svg">
<circle opacity="0.55" cx="22.5571" cy="23" r="22.5" fill="#D2EBE7"/>
<path d="M23 31.8995L27.9497 26.9497C30.6834 24.2161 30.6834 19.7839 27.9497 17.0503C25.2161 14.3166 20.7839 14.3166 18.0503 17.0503C15.3166 19.7839 15.3166 24.2161 18.0503 26.9497L23 31.8995ZM23 34.7279L16.636 28.364C13.1213 24.8492 13.1213 19.1508 16.636 15.636C20.1508 12.1213 25.8492 12.1213 29.364 15.636C32.8787 19.1508 32.8787 24.8492 29.364 28.364L23 34.7279ZM23 24C24.1046 24 25 23.1046 25 22C25 20.8954 24.1046 20 23 20C21.8954 20 21 20.8954 21 22C21 23.1046 21.8954 24 23 24ZM23 26C20.7909 26 19 24.2091 19 22C19 19.7909 20.7909 18 23 18C25.2091 18 27 19.7909 27 22C27 24.2091 25.2091 26 23 26Z" fill="#0B8FAC"/>
</svg>
