<svg width="46" height="46" viewBox="0 0 46 46" fill="none" xmlns="http://www.w3.org/2000/svg">
<circle opacity="0.55" cx="22.5571" cy="22.9998" r="22.5" fill="#D2EBE7"/>
<path d="M19.6874 15.0001L22.294 12.3935C22.6845 12.003 23.3176 12.003 23.7082 12.3935L26.3148 15.0001H30.0011C30.5533 15.0001 31.0011 15.4478 31.0011 16.0001V19.6864L33.6077 22.293C33.9982 22.6835 33.9982 23.3167 33.6077 23.7072L31.0011 26.3138V30.0001C31.0011 30.5524 30.5533 31.0001 30.0011 31.0001H26.3148L23.7082 33.6067C23.3176 33.9972 22.6845 33.9972 22.294 33.6067L19.6874 31.0001H16.0011C15.4488 31.0001 15.0011 30.5524 15.0011 30.0001V26.3138L12.3945 23.7072C12.0039 23.3167 12.0039 22.6835 12.3945 22.293L15.0011 19.6864V16.0001C15.0011 15.4478 15.4488 15.0001 16.0011 15.0001H19.6874ZM17.0011 17.0001V20.5148L14.5158 23.0001L17.0011 25.4854V29.0001H20.5158L23.0011 31.4854L25.4863 29.0001H29.0011V25.4854L31.4863 23.0001L29.0011 20.5148V17.0001H25.4863L23.0011 14.5148L20.5158 17.0001H17.0011ZM23.0011 27.0001C20.7919 27.0001 19.0011 25.2092 19.0011 23.0001C19.0011 20.7909 20.7919 19.0001 23.0011 19.0001C25.2102 19.0001 27.0011 20.7909 27.0011 23.0001C27.0011 25.2092 25.2102 27.0001 23.0011 27.0001ZM23.0011 25.0001C24.1056 25.0001 25.0011 24.1047 25.0011 23.0001C25.0011 21.8955 24.1056 21.0001 23.0011 21.0001C21.8965 21.0001 21.0011 21.8955 21.0011 23.0001C21.0011 24.1047 21.8965 25.0001 23.0011 25.0001Z" fill="#0B8FAC"/>
</svg>
