<svg width="46" height="46" viewBox="0 0 46 46" fill="none" xmlns="http://www.w3.org/2000/svg">
<circle opacity="0.55" cx="22.5571" cy="22.9999" r="22.5" fill="#D2EBE7"/>
<path d="M33.0049 18H34.0049V28H33.0049V31C33.0049 31.5523 32.5572 32 32.0049 32H14.0049C13.4526 32 13.0049 31.5523 13.0049 31V15C13.0049 14.4477 13.4526 14 14.0049 14H32.0049C32.5572 14 33.0049 14.4477 33.0049 15V18ZM31.0049 28H25.0049C22.2435 28 20.0049 25.7614 20.0049 23C20.0049 20.2386 22.2435 18 25.0049 18H31.0049V16H15.0049V30H31.0049V28ZM32.0049 26V20H25.0049C23.348 20 22.0049 21.3431 22.0049 23C22.0049 24.6569 23.348 26 25.0049 26H32.0049ZM25.0049 22H28.0049V24H25.0049V22Z" fill="#0B8FAC"/>
</svg>
