<svg width="31" height="31" viewBox="0 0 31 31" fill="none" xmlns="http://www.w3.org/2000/svg">
<circle cx="15.5" cy="15.5" r="15" fill="#7BC1B7" fill-opacity="0.3"/>
<path d="M13.5242 14.5116C14.2265 15.7466 15.2534 16.7735 16.4884 17.4758L17.1518 16.5471C17.3724 16.2384 17.7887 16.143 18.1217 16.3249C19.1768 16.9012 20.3428 17.2515 21.5592 17.3478C21.9492 17.3787 22.25 17.7042 22.25 18.0954V21.4426C22.25 21.8271 21.9591 22.1493 21.5766 22.1886C21.1792 22.2295 20.7783 22.25 20.375 22.25C13.9547 22.25 8.75 17.0453 8.75 10.625C8.75 10.2217 8.77057 9.82078 8.81142 9.42332C8.85073 9.04081 9.17296 8.75 9.55749 8.75H12.9046C13.2958 8.75 13.6213 9.05078 13.6522 9.44082C13.7485 10.6572 14.0988 11.8232 14.6751 12.8783C14.857 13.2113 14.7616 13.6277 14.4529 13.8482L13.5242 14.5116ZM11.6332 14.0189L13.0581 13.0011C12.6541 12.1289 12.3772 11.2039 12.2355 10.25H10.2568C10.2523 10.3747 10.25 10.4998 10.25 10.625C10.25 16.2169 14.7831 20.75 20.375 20.75C20.5002 20.75 20.6253 20.7478 20.75 20.7432V18.7645C19.7962 18.6228 18.8712 18.3459 17.9989 17.9419L16.9811 19.3668C16.5694 19.2069 16.1717 19.0186 15.7905 18.8046L15.747 18.7797C14.2773 17.944 13.056 16.7227 12.2202 15.253L12.1955 15.2095C11.9814 14.8283 11.7932 14.4306 11.6332 14.0189Z" fill="black"/>
</svg>
