<svg width="46" height="46" viewBox="0 0 46 46" fill="none" xmlns="http://www.w3.org/2000/svg">
<circle opacity="0.55" cx="22.5571" cy="23" r="22.5" fill="#D2EBE7"/>
<path d="M23 13C28.5228 13 33 17.4771 33 23C33 28.5228 28.5228 33 23 33C17.4771 33 13 28.5228 13 23H15C15 27.4183 18.5817 31 23 31C27.4183 31 31 27.4183 31 23C31 18.5817 27.4183 15 23 15C20.2502 15 17.8245 16.3873 16.3845 18.5002L19 18.5V20.5H13V14.5H15L14.9999 16.9992C16.8243 14.5707 19.7287 13 23 13ZM24 18L23.9998 22.585L27.2426 25.8284L25.8284 27.2426L21.9998 23.413L22 18H24Z" fill="#0B8FAC"/>
</svg>
