<svg width="24" height="25" viewBox="0 0 24 25" fill="none" xmlns="http://www.w3.org/2000/svg">
<path d="M20 15.3335C21.3082 13.8317 22 12.5 22 12.5C22 12.5 18.3636 5.5 12 5.5C11.6588 5.5 11.3254 5.52013 11 5.55822C10.6578 5.59828 10.3244 5.65822 10 5.73552M12 9.5C12.3506 9.5 12.6872 9.56015 13 9.67071C13.8524 9.97199 14.528 10.6476 14.8293 11.5C14.9398 11.8128 15 12.1494 15 12.5M3 3.5L21 21.5M12 15.5C11.6494 15.5 11.3128 15.4398 11 15.3293C10.1476 15.028 9.47198 14.3524 9.1707 13.5C9.11386 13.3392 9.07034 13.1721 9.04147 13M4.14701 9.5C3.83877 9.84451 3.56234 10.1824 3.31864 10.5C2.45286 11.6282 2 12.5 2 12.5C2 12.5 5.63636 19.5 12 19.5C12.3412 19.5 12.6746 19.4799 13 19.4418" stroke="#0B8FAC" stroke-width="2" stroke-linecap="round" stroke-linejoin="round"/>
</svg>
