<svg width="25" height="25" viewBox="0 0 25 25" fill="none" xmlns="http://www.w3.org/2000/svg">
<path d="M20.5718 15.584C21.88 14.0822 22.5718 12.7505 22.5718 12.7505C22.5718 12.7505 18.9354 5.75049 12.5718 5.75049C12.2306 5.75049 11.8972 5.77061 11.5718 5.80871C11.2296 5.84877 10.8962 5.90871 10.5718 5.986M12.5718 9.75049C12.9224 9.75049 13.259 9.81064 13.5718 9.92119C14.4242 10.2225 15.0998 10.8981 15.4011 11.7505C15.5116 12.0633 15.5718 12.3999 15.5718 12.7505M3.57178 3.75049L21.5718 21.7505M12.5718 15.7505C12.2211 15.7505 11.8846 15.6903 11.5718 15.5798C10.7194 15.2785 10.0438 14.6029 9.74248 13.7505C9.68564 13.5897 9.64212 13.4226 9.61325 13.2505M4.71879 9.75049C4.41054 10.095 4.13412 10.4329 3.89041 10.7505C3.02464 11.8787 2.57178 12.7505 2.57178 12.7505C2.57178 12.7505 6.20814 19.7505 12.5718 19.7505C12.913 19.7505 13.2464 19.7304 13.5718 19.6923" stroke="#0B8FAC" stroke-width="2" stroke-linecap="round" stroke-linejoin="round"/>
</svg>
