<svg width="19" height="12" viewBox="0 0 19 12" fill="none" xmlns="http://www.w3.org/2000/svg">
<path fill-rule="evenodd" clip-rule="evenodd" d="M15.8499 0.5C15.2977 0.5 14.8499 0.947715 14.8499 1.5V10.5C14.8499 11.0523 15.2977 11.5 15.8499 11.5H17.1499C17.7022 11.5 18.1499 11.0523 18.1499 10.5V1.5C18.1499 0.947715 17.7022 0.5 17.1499 0.5H15.8499ZM9.90005 3.69991C9.90005 3.14763 10.3478 2.69991 10.9001 2.69991H12.2001C12.7523 2.69991 13.2001 3.14763 13.2001 3.69991V10.4999C13.2001 11.0522 12.7523 11.4999 12.2001 11.4999H10.9001C10.3478 11.4999 9.90005 11.0522 9.90005 10.4999V3.69991ZM5.94992 4.90005C5.39764 4.90005 4.94992 5.34776 4.94992 5.90004V10.5C4.94992 11.0523 5.39763 11.5 5.94992 11.5H7.24992C7.80221 11.5 8.24992 11.0523 8.24992 10.5V5.90005C8.24992 5.34776 7.80221 4.90005 7.24992 4.90005H5.94992ZM1.1 11.5C0.492487 11.5 0 11.0075 0 10.4V7.65C0 7.04249 0.492487 6.55 1.1 6.55H2.2C2.80751 6.55 3.3 7.04249 3.3 7.65V10.4C3.3 11.0075 2.80751 11.5 2.2 11.5H1.1Z" fill="black"/>
</svg>
