<svg width="18" height="14" viewBox="0 0 18 14" fill="none" xmlns="http://www.w3.org/2000/svg">
<path d="M9.00049 3.19984C11.6121 3.19995 14.1239 4.20936 16.0167 6.01942C16.1592 6.15916 16.387 6.1574 16.5274 6.01547L17.8899 4.63235C17.961 4.56036 18.0006 4.46285 18 4.36139C17.9994 4.25994 17.9586 4.1629 17.8867 4.09175C12.9188 -0.69725 5.08138 -0.69725 0.113468 4.09175C0.0415041 4.16284 0.000672511 4.25985 8.9596e-06 4.36131C-0.000654709 4.46277 0.0389042 4.56031 0.109932 4.63235L1.47278 6.01547C1.61307 6.15762 1.84107 6.15938 1.98351 6.01942C3.87652 4.20924 6.38859 3.19983 9.00049 3.19984ZM9.00049 7.69971C10.4354 7.69962 11.8191 8.23611 12.8828 9.20494C13.0267 9.34243 13.2533 9.33945 13.3935 9.19822L14.7544 7.8151C14.8261 7.74255 14.8658 7.64413 14.8648 7.54186C14.8638 7.4396 14.822 7.34201 14.7489 7.27094C11.5099 4.24028 6.49385 4.24028 3.25483 7.27094C3.18166 7.34201 3.13992 7.43964 3.13896 7.54195C3.138 7.64425 3.1779 7.74266 3.24972 7.8151L4.61021 9.19822C4.75045 9.33945 4.97707 9.34243 5.12094 9.20494C6.18388 8.23675 7.56651 7.70031 9.00049 7.69971ZM11.6158 11.0006C11.6886 10.9288 11.7287 10.8299 11.7266 10.7273C11.7245 10.6248 11.6804 10.5276 11.6048 10.4588C10.1014 9.17978 7.89957 9.17978 6.39618 10.4588C6.32049 10.5276 6.27636 10.6247 6.2742 10.7272C6.27204 10.8298 6.31206 10.9287 6.38479 11.0006L8.73924 13.3902C8.80824 13.4605 8.90233 13.5 9.00049 13.5C9.09866 13.5 9.19274 13.4605 9.26175 13.3902L11.6158 11.0006Z" fill="black"/>
</svg>
